<svg xmlns="http://www.w3.org/2000/svg" viewBox="0 0 32 32" width="32" height="32">
  <defs>
    <linearGradient id="g" x1="0" y1="0" x2="1" y2="1">
      <stop offset="0" stop-color="#6366f1" />
      <stop offset="0.5" stop-color="#8b5cf6" />
      <stop offset="1" stop-color="#a855f7" />
    </linearGradient>
  </defs>
  <rect x="0" y="0" width="32" height="32" rx="8" fill="url(#g)" />
  <g fill="none" stroke="#ffffff" stroke-width="2" stroke-linecap="round" stroke-linejoin="round">
    <path d="M16 10v13" />
    <path d="M8 9.5C8 9.5 9.5 9 11 9c1.6 0 3.4.6 5 1.5C17.6 9.6 19.4 9 21 9c1.5 0 3 .5 3 .5v12s-1.5-.5-3-.5c-1.6 0-3.4.6-5 1.5-1.6-.9-3.4-1.5-5-1.5-1.5 0-3 .5-3 .5z" />
  </g>
</svg>
